<?xml version="1.0" encoding="utf-8"?>
<!-- Generator: Adobe Illustrator 27.5.0, SVG Export Plug-In . SVG Version: 6.00 Build 0)  -->
<svg version="1.1" xmlns="http://www.w3.org/2000/svg" xmlns:xlink="http://www.w3.org/1999/xlink" x="0px" y="0px"
	 viewBox="0 0 500 500" style="enable-background:new 0 0 500 500;" xml:space="preserve">
<g id="Background_00000111878506278143305790000009987006831903834293_">
	<path id="Background" style="fill:#FF95FB;" d="M208.531,42.467c-94.505-2.96-176.369,70.243-176.25,167.582
		c-0.014,92.294,74.849,167.123,167.101,167.111c47.605,0.113,91.27,16.27,126.218,43.523
		c39.288,30.172,98.711,13.438,117.038-31.672c0.01-0.021,0.021-0.052,0.031-0.073c0.553-1.283,1.064-2.587,1.534-3.912
		C508.307,223.125,385.723,48.017,208.531,42.467z"/>
</g>
<g id="Audio_waves">
	<g id="Audio">
		<g>
			
				<line style="fill:none;stroke:#FFFFFF;stroke-width:1.5;stroke-linecap:round;stroke-linejoin:round;stroke-miterlimit:10;" x1="37.981" y1="211.481" x2="37.981" y2="219.085"/>
			
				<line style="fill:none;stroke:#FFFFFF;stroke-width:1.5;stroke-linecap:round;stroke-linejoin:round;stroke-miterlimit:10;" x1="48.696" y1="197.614" x2="48.696" y2="232.953"/>
			
				<line style="fill:none;stroke:#FFFFFF;stroke-width:1.5;stroke-linecap:round;stroke-linejoin:round;stroke-miterlimit:10;" x1="59.412" y1="205.093" x2="59.412" y2="225.474"/>
			
				<line style="fill:none;stroke:#FFFFFF;stroke-width:1.5;stroke-linecap:round;stroke-linejoin:round;stroke-miterlimit:10;" x1="70.128" y1="188.362" x2="70.128" y2="242.205"/>
			
				<line style="fill:none;stroke:#FFFFFF;stroke-width:1.5;stroke-linecap:round;stroke-linejoin:round;stroke-miterlimit:10;" x1="80.843" y1="209.786" x2="80.843" y2="220.781"/>
			
				<line style="fill:none;stroke:#FFFFFF;stroke-width:1.5;stroke-linecap:round;stroke-linejoin:round;stroke-miterlimit:10;" x1="91.559" y1="203.964" x2="91.559" y2="226.603"/>
			
				<line style="fill:none;stroke:#FFFFFF;stroke-width:1.5;stroke-linecap:round;stroke-linejoin:round;stroke-miterlimit:10;" x1="102.274" y1="188.576" x2="102.274" y2="241.991"/>
			
				<line style="fill:none;stroke:#FFFFFF;stroke-width:1.5;stroke-linecap:round;stroke-linejoin:round;stroke-miterlimit:10;" x1="112.99" y1="193.792" x2="112.99" y2="236.775"/>
			
				<line style="fill:none;stroke:#FFFFFF;stroke-width:1.5;stroke-linecap:round;stroke-linejoin:round;stroke-miterlimit:10;" x1="123.705" y1="184.944" x2="123.705" y2="245.623"/>
			
				<line style="fill:none;stroke:#FFFFFF;stroke-width:1.5;stroke-linecap:round;stroke-linejoin:round;stroke-miterlimit:10;" x1="134.421" y1="200.008" x2="134.421" y2="230.559"/>
			
				<line style="fill:none;stroke:#FFFFFF;stroke-width:1.5;stroke-linecap:round;stroke-linejoin:round;stroke-miterlimit:10;" x1="145.136" y1="210.582" x2="145.136" y2="219.985"/>
			
				<line style="fill:none;stroke:#FFFFFF;stroke-width:1.5;stroke-linecap:round;stroke-linejoin:round;stroke-miterlimit:10;" x1="155.852" y1="206.835" x2="155.852" y2="223.732"/>
			
				<line style="fill:none;stroke:#FFFFFF;stroke-width:1.5;stroke-linecap:round;stroke-linejoin:round;stroke-miterlimit:10;" x1="166.783" y1="193.792" x2="166.783" y2="236.773"/>
			
				<line style="fill:none;stroke:#FFFFFF;stroke-width:1.5;stroke-linecap:round;stroke-linejoin:round;stroke-miterlimit:10;" x1="177.283" y1="174.582" x2="177.283" y2="255.985"/>
			
				<line style="fill:none;stroke:#FFFFFF;stroke-width:1.5;stroke-linecap:round;stroke-linejoin:round;stroke-miterlimit:10;" x1="187.998" y1="185.041" x2="187.998" y2="245.526"/>
			
				<line style="fill:none;stroke:#FFFFFF;stroke-width:1.5;stroke-linecap:round;stroke-linejoin:round;stroke-miterlimit:10;" x1="198.714" y1="200.446" x2="198.714" y2="230.121"/>
			
				<line style="fill:none;stroke:#FFFFFF;stroke-width:1.5;stroke-linecap:round;stroke-linejoin:round;stroke-miterlimit:10;" x1="209.43" y1="208.658" x2="209.43" y2="221.909"/>
			
				<line style="fill:none;stroke:#FFFFFF;stroke-width:1.5;stroke-linecap:round;stroke-linejoin:round;stroke-miterlimit:10;" x1="220.145" y1="203.105" x2="220.145" y2="227.462"/>
			
				<line style="fill:none;stroke:#FFFFFF;stroke-width:1.5;stroke-linecap:round;stroke-linejoin:round;stroke-miterlimit:10;" x1="230.861" y1="184.944" x2="230.861" y2="245.623"/>
			
				<line style="fill:none;stroke:#FFFFFF;stroke-width:1.5;stroke-linecap:round;stroke-linejoin:round;stroke-miterlimit:10;" x1="241.576" y1="193.791" x2="241.576" y2="236.775"/>
			
				<line style="fill:none;stroke:#FFFFFF;stroke-width:1.5;stroke-linecap:round;stroke-linejoin:round;stroke-miterlimit:10;" x1="252.292" y1="188.577" x2="252.292" y2="241.99"/>
			
				<line style="fill:none;stroke:#FFFFFF;stroke-width:1.5;stroke-linecap:round;stroke-linejoin:round;stroke-miterlimit:10;" x1="263.007" y1="203.544" x2="263.007" y2="227.023"/>
			
				<line style="fill:none;stroke:#FFFFFF;stroke-width:1.5;stroke-linecap:round;stroke-linejoin:round;stroke-miterlimit:10;" x1="273.723" y1="209.787" x2="273.723" y2="220.78"/>
			
				<line style="fill:none;stroke:#FFFFFF;stroke-width:1.5;stroke-linecap:round;stroke-linejoin:round;stroke-miterlimit:10;" x1="284.438" y1="188.151" x2="284.438" y2="242.415"/>
			
				<line style="fill:none;stroke:#FFFFFF;stroke-width:1.5;stroke-linecap:round;stroke-linejoin:round;stroke-miterlimit:10;" x1="295.154" y1="203.964" x2="295.154" y2="226.603"/>
			
				<line style="fill:none;stroke:#FFFFFF;stroke-width:1.5;stroke-linecap:round;stroke-linejoin:round;stroke-miterlimit:10;" x1="305.869" y1="197.828" x2="305.869" y2="232.738"/>
			
				<line style="fill:none;stroke:#FFFFFF;stroke-width:1.5;stroke-linecap:round;stroke-linejoin:round;stroke-miterlimit:10;" x1="316.585" y1="211.481" x2="316.585" y2="219.085"/>
			
				<line style="fill:none;stroke:#FFFFFF;stroke-width:1.5;stroke-linecap:round;stroke-linejoin:round;stroke-miterlimit:10;" x1="327.3" y1="203.105" x2="327.3" y2="227.462"/>
			
				<line style="fill:none;stroke:#FFFFFF;stroke-width:1.5;stroke-linecap:round;stroke-linejoin:round;stroke-miterlimit:10;" x1="338.016" y1="192.204" x2="338.016" y2="238.363"/>
			
				<line style="fill:none;stroke:#FFFFFF;stroke-width:1.5;stroke-linecap:round;stroke-linejoin:round;stroke-miterlimit:10;" x1="348.731" y1="172.976" x2="348.731" y2="257.591"/>
			
				<line style="fill:none;stroke:#FFFFFF;stroke-width:1.5;stroke-linecap:round;stroke-linejoin:round;stroke-miterlimit:10;" x1="359.447" y1="197.828" x2="359.447" y2="232.738"/>
			
				<line style="fill:none;stroke:#FFFFFF;stroke-width:1.5;stroke-linecap:round;stroke-linejoin:round;stroke-miterlimit:10;" x1="370.163" y1="209.786" x2="370.163" y2="220.781"/>
			
				<line style="fill:none;stroke:#FFFFFF;stroke-width:1.5;stroke-linecap:round;stroke-linejoin:round;stroke-miterlimit:10;" x1="380.878" y1="212.148" x2="380.878" y2="218.419"/>
			
				<line style="fill:none;stroke:#FFFFFF;stroke-width:1.5;stroke-linecap:round;stroke-linejoin:round;stroke-miterlimit:10;" x1="441.143" y1="212.148" x2="441.143" y2="218.419"/>
			
				<line style="fill:none;stroke:#FFFFFF;stroke-width:1.5;stroke-linecap:round;stroke-linejoin:round;stroke-miterlimit:10;" x1="391.594" y1="203.964" x2="391.594" y2="226.603"/>
			
				<line style="fill:none;stroke:#FFFFFF;stroke-width:1.5;stroke-linecap:round;stroke-linejoin:round;stroke-miterlimit:10;" x1="433.238" y1="203.964" x2="433.238" y2="226.603"/>
			
				<line style="fill:none;stroke:#FFFFFF;stroke-width:1.5;stroke-linecap:round;stroke-linejoin:round;stroke-miterlimit:10;" x1="402.309" y1="188.576" x2="402.309" y2="241.991"/>
			
				<line style="fill:none;stroke:#FFFFFF;stroke-width:1.5;stroke-linecap:round;stroke-linejoin:round;stroke-miterlimit:10;" x1="413.025" y1="180.579" x2="413.025" y2="249.988"/>
			
				<line style="fill:none;stroke:#FFFFFF;stroke-width:1.5;stroke-linecap:round;stroke-linejoin:round;stroke-miterlimit:10;" x1="423.74" y1="197.828" x2="423.74" y2="232.738"/>
		</g>
	</g>
</g>
<g id="Musical_notes">
	<path id="Musical_note_14_" style="fill:#FFFFFF;" d="M241.871,107.387l-0.033,24.425c-1.408-0.501-2.99-0.637-4.75,0.195
		c-2.355,1.114-4.025,3.412-4.004,6.017c0.029,3.602,2.958,6.514,6.566,6.513c3.626-0.001,6.564-2.939,6.564-6.564l0.046-28.066
		l22.635-7.56l0.013,1.647l-0.01,0l0,18.731c-1.404-0.499-2.977-0.637-4.733,0.186c-2.36,1.105-4.037,3.402-4.023,6.007
		c0.019,3.611,2.952,6.532,6.567,6.531c3.623-0.001,6.561-2.936,6.563-6.559l0.003-0.001l0-38.287l-25.478,8.556
		C244.26,100.346,241.876,103.657,241.871,107.387z"/>
	<path id="Musical_note" style="fill:#FFFFFF;" d="M292.61,125.677l22.239-7.467l0,0c0,6.133-3.923,11.579-9.74,13.522l-8.119,2.712
		l-0.046,20.908c0,3.618-2.941,6.559-6.566,6.559s-6.559-2.933-6.566-6.559c0-3.626,2.941-6.566,6.566-6.566
		c0.77,0,1.501,0.154,2.194,0.4L292.61,125.677z"/>
</g>
<g id="Icon_2">
	<g id="Icon_00000149358859610847202360000014057186074429821354_">
		<g>
			<circle style="fill:#00826F;" cx="117.553" cy="412.08" r="25.346"/>
			<path style="fill:#FFFFFF;" d="M125.194,401.83H123c-1.027,0-1.86,0.833-1.86,1.86v16.779c0,1.027,0.833,1.86,1.86,1.86h2.194
				c1.027,0,1.86-0.833,1.86-1.86V403.69C127.054,402.663,126.221,401.83,125.194,401.83z M112.105,401.83h-2.194
				c-1.027,0-1.86,0.833-1.86,1.86v16.779c0,1.027,0.833,1.86,1.86,1.86h2.194c1.027,0,1.86-0.833,1.86-1.86V403.69
				C113.965,402.663,113.133,401.83,112.105,401.83z"/>
		</g>
		<g>
			<path style="fill:#00826F;" d="M153.027,419.361v-14.563c0-1.344,1.433-2.203,2.618-1.57l13.638,7.281
				c1.255,0.67,1.255,2.47,0,3.14l-13.638,7.281C154.459,421.564,153.027,420.705,153.027,419.361z"/>
			<path style="fill:#00826F;" d="M173.372,422.329L173.372,422.329c-0.805,0-1.458-0.653-1.458-1.458v-17.583
				c0-0.805,0.653-1.458,1.458-1.458h0c0.805,0,1.458,0.653,1.458,1.458v17.583C174.83,421.677,174.178,422.329,173.372,422.329z"/>
		</g>
		<g>
			<path style="fill:#00826F;" d="M82.079,419.361v-14.563c0-1.344-1.433-2.203-2.618-1.57l-13.638,7.281
				c-1.255,0.67-1.255,2.47,0,3.14l13.638,7.281C80.647,421.564,82.079,420.705,82.079,419.361z"/>
			<path style="fill:#00826F;" d="M61.734,422.329L61.734,422.329c0.805,0,1.458-0.653,1.458-1.458v-17.583
				c0-0.805-0.653-1.458-1.458-1.458l0,0c-0.805,0-1.458,0.653-1.458,1.458v17.583C60.276,421.677,60.928,422.329,61.734,422.329z"
				/>
		</g>
	</g>
</g>
<g id="Icon_1">
	<g id="Icon">
		<circle style="fill:#00826F;" cx="425.969" cy="85.053" r="23.193"/>
		<g>
			<path style="fill:#00826F;" d="M425.969,57.863c14.992,0,27.19,12.197,27.19,27.19s-12.197,27.189-27.19,27.189
				c-14.992,0-27.189-12.197-27.189-27.189S410.976,57.863,425.969,57.863 M425.969,56.363c-15.845,0-28.689,12.845-28.689,28.69
				s12.845,28.689,28.689,28.689s28.69-12.845,28.69-28.689S441.813,56.363,425.969,56.363L425.969,56.363z"/>
		</g>
		<path style="fill:#FFFFFF;" d="M439.276,82.91l-19.106-11.031c-1.65-0.952-3.711,0.238-3.711,2.143v22.062
			c0,1.905,2.062,3.095,3.711,2.143l19.106-11.031C440.925,86.243,440.925,83.862,439.276,82.91z"/>
	</g>
</g>
<g id="Character_00000000920262163982880140000006206659099761249170_">
	<g id="Character">
		<g id="Arm_00000160910234958035275900000002444967506860815039_">
			<g>
				<g>
					<path style="fill:#FFC4B0;" d="M218.642,190.289c-15.166-9.071-24.311-10.754-33.656-5.123v24.332
						c0,0,43.393,20.517,61.88,20.712L218.642,190.289z"/>
				</g>
				<path style="fill:#F55571;stroke:#F55571;stroke-width:1.5;stroke-miterlimit:10;" d="M232.363,227.719
					c0,0-1.12,4.335-4.321,4.335c-3.215,0-43.354-8.889-43.354-8.889l-0.988-39.667c8.036-5.634,14.615-4.471,18.943-3.288
					c1.712,0.468,7.781,2.933,13.746,5.013c0.698,1.324,1.644,3.244,2.255,5.063c1.95,5.834,3.972,10.402,6.11,13.995
					c-0.131,9.515,1.848,20.237,3.201,22.172L232.363,227.719z"/>
			</g>
			<g>
				<path style="fill:#FFC4B0;" d="M246.865,230.21c8.705,0.092,13.783-5.479,14.817-11.517
					c3.082-18.005-25.337-40.288-33.206-48.746c-2.526-2.931-4.567-5.348-5.584-6.878c-5.109-7.686-8.287-12.753-10.964-16.67
					c-2.676-3.916-5.436-6.042-8.767-8.416c-3.512-2.503-4.842,0.368-4.842,0.368s-2.871-2.643-4.415-1.058
					c-1.545,1.585,0.451,3.595,0.451,3.595s-1.624-0.472-2.181,2.386c-0.278,1.429-0.127,2.276,2.104,6.115
					c1.824,3.138,5.844,9.589,6.29,12.476c0.446,2.887-3.9,1.123-6.718-0.178c-2.818-1.301-5.246-0.162-4.862,1.638
					c0.384,1.8,3.505,5.78,9.119,7.991c10.064,3.964,13.745,5.446,16.784,11.061l3.752,7.914"/>
			</g>
			<path style="fill:none;stroke:#303030;stroke-width:1.5;stroke-linecap:round;stroke-linejoin:round;stroke-miterlimit:10;" d="
				M210.695,147.23c-0.831-1.072-1.764-1.735-5.432-4.982c-0.424-0.376-0.939-0.772-1.497-0.667
				c-0.463,0.087-0.797,0.508-0.961,0.949c-0.456,1.23,0.111,2.602,0.846,3.689c2.462,3.642,6.066,7.387,6.296,11.093
				c0.098,1.583-0.42,3.043-0.497,4.236c-0.22,3.371,1.854,6.774,4.951,8.124"/>
			<path style="fill:none;stroke:#303030;stroke-width:1.5;stroke-linecap:round;stroke-linejoin:round;stroke-miterlimit:10;" d="
				M198.319,138.35c-0.13,1.409,2.82,5.074,5.158,8.095"/>
			<path style="fill:none;stroke:#303030;stroke-width:1.5;stroke-linecap:round;stroke-linejoin:round;stroke-miterlimit:10;" d="
				M194.354,140.887c1.22,1.809,6.898,10.528,6.898,10.528"/>
			<path style="fill:none;stroke:#303030;stroke-width:1.5;stroke-linecap:round;stroke-linejoin:round;stroke-miterlimit:10;" d="
				M218.642,190.289c5.166,13.977,9.854,20.903,16.128,24.21"/>
		</g>
		<g id="Head_00000065786513687408804540000013027913440227061157_">
			<g id="Hair_00000119090085746457935440000010528129409176489885_">
				<path style="fill:#00826F;" d="M194.354,150.171c-1.336,15.309-15.089,26.408-31.118,25.01
					c-16.029-1.399-27.94-14.944-26.603-30.253s8.784-27.887,31.442-25.186C184.104,121.141,206.883,127.166,194.354,150.171z"/>
				<path style="fill:#00826F;" d="M167.251,155.969l-21.931-33.605c-6.375,1.56-12.063,5.751-15.443,11.376
					c-3.264,5.431-4.697,11.898-2.507,17.981c-6.647,0.31-14.397,4.91-16.927,15.321c-2.039,8.391,4.421,21.198,15.363,23.571
					c1.176,6.504,10.744,13.988,21.575,12.321c7.476-1.15,12.537-5.071,14.706-9.247
					C167.693,182.892,168.548,166.159,167.251,155.969z"/>
			</g>
			<path style="fill:#FFC4B0;" d="M155.033,127.282c-1.37,19.154-11.556,22.437-11.556,22.437c1.064,2.585,1.807,5.289,2.21,8.036
				c-1.864-2.972-4.845-5.48-8.407-6.082c-3.562-0.601-7.615,1.131-8.831,4.373c-1.202,3.205,0.684,6.98,3.716,8.807
				c3.032,1.827,7.369,2.318,11.467,0.662l0.005-0.003c1.177,3.409,4.006,6.963,8.272,9.522l-3.043,13.855l-8.678,2.332
				c0,0,0.697,17.48,32.376,22.177c23.649,3.506,7.459-22.814,7.459-22.814l-8.182-1.871l-0.374-8.575
				c6.068-0.075,24.033-3.991,23.118-27.136c-0.184-4.647-1.334-8.999-3.142-12.823l-0.001,0
				C183.734,124.672,166.702,123.19,155.033,127.282z"/>
			<g>
				<path style="fill:none;stroke:#303030;stroke-width:1.5;stroke-linecap:round;stroke-linejoin:round;stroke-miterlimit:10;" d="
					M166.621,162.495c1.819,1.757,6.18,2.676,8.505,1.539"/>
				<g>
					<g>
						<path style="fill:#303030;" d="M171.26,170.117c-0.036,0.265-0.072,0.53-0.108,0.795c-0.031,0.1-0.036,0.199-0.013,0.299
							c0.005,0.1,0.034,0.193,0.089,0.279c0.047,0.087,0.111,0.158,0.193,0.21c0.072,0.066,0.157,0.111,0.255,0.134
							c0.066,0.009,0.133,0.018,0.199,0.027c0.135,0,0.262-0.035,0.379-0.102c0.051-0.039,0.101-0.078,0.152-0.117
							c0.093-0.094,0.157-0.204,0.193-0.331c0.036-0.265,0.072-0.53,0.108-0.795c0.031-0.1,0.036-0.199,0.013-0.299
							c-0.005-0.1-0.034-0.193-0.089-0.279c-0.047-0.087-0.111-0.158-0.193-0.211c-0.072-0.066-0.157-0.111-0.255-0.134
							c-0.067-0.009-0.133-0.018-0.199-0.027c-0.135,0-0.262,0.035-0.379,0.102c-0.051,0.039-0.101,0.078-0.152,0.117
							C171.36,169.88,171.296,169.99,171.26,170.117L171.26,170.117z"/>
					</g>
				</g>
				<g>
					
						<path style="fill:none;stroke:#303030;stroke-width:1.5;stroke-linecap:round;stroke-linejoin:round;stroke-miterlimit:10;" d="
						M133.438,156.29c0.888-0.482,2.958-0.693,4.934,0.086c1.976,0.778,3.484,2.568,3.858,4.576"/>
					
						<path style="fill:none;stroke:#303030;stroke-width:1.5;stroke-linecap:round;stroke-linejoin:round;stroke-miterlimit:10;" d="
						M136.665,158.897c0.654-0.351,2.907-1.176,4.857,0.183"/>
				</g>
				<g>
					<path style="fill:#303030;" d="M158.968,177.865c0,0,5.826,2.648,12.502,2.273l0.148,3.389
						C171.618,183.528,163.889,183.328,158.968,177.865z"/>
					
						<path style="fill:#FFC4B0;stroke:#303030;stroke-width:1.5;stroke-linecap:round;stroke-linejoin:round;stroke-miterlimit:10;" d="
						M172.948,143.159c-0.083,6.012,3.866,8.867,3.876,10.69c0.012,2.01-1.313,3.18-4.392,3.723"/>
					<g>
						<g>
							
								<path style="fill:none;stroke:#303030;stroke-width:1.5;stroke-linecap:round;stroke-linejoin:round;stroke-miterlimit:10;" d="
								M178.321,149.065c1.366,3.064,4.918,3.361,7.168,2.632c2.25-0.729,3.696-2.231,4.047-4.604"/>
							
								<path style="fill:none;stroke:#303030;stroke-width:1.5;stroke-linecap:round;stroke-linejoin:round;stroke-miterlimit:10;" d="
								M192.272,148.623c-0.542,0.538-1.422,0.701-2.121,0.393"/>
						</g>
						
							<path style="fill:none;stroke:#303030;stroke-width:1.5;stroke-linecap:round;stroke-linejoin:round;stroke-miterlimit:10;" d="
							M181.218,136.154c4.824-0.839,8.442,1.784,10.814,3.906"/>
						
							<path style="fill:none;stroke:#303030;stroke-width:1.5;stroke-linecap:round;stroke-linejoin:round;stroke-miterlimit:10;" d="
							M167.693,136.405c-4.136-1.012-7.929,1.209-10.639,3.64"/>
					</g>
					<g>
						<g>
							
								<path style="fill:none;stroke:#303030;stroke-width:1.5;stroke-linecap:round;stroke-linejoin:round;stroke-miterlimit:10;" d="
								M157.04,146.557c0.046,3.355,3.193,5.029,5.549,5.247c2.355,0.218,4.724-1.034,5.782-3.056"/>
						</g>
						
							<path style="fill:none;stroke:#303030;stroke-width:1.5;stroke-linecap:round;stroke-linejoin:round;stroke-miterlimit:10;" d="
							M154.159,147.119c0.455,0.8,1.388,1.302,2.307,1.242"/>
					</g>
				</g>
			</g>
			<g>
				<g>
					
						<line style="fill:none;stroke:#D48983;stroke-width:1.5;stroke-linecap:round;stroke-linejoin:round;stroke-miterlimit:10;" x1="154.905" y1="153.751" x2="151.995" y2="157.278"/>
					
						<line style="fill:none;stroke:#D48983;stroke-width:1.5;stroke-linecap:round;stroke-linejoin:round;stroke-miterlimit:10;" x1="157.97" y1="155.586" x2="155.06" y2="159.113"/>
					
						<line style="fill:none;stroke:#D48983;stroke-width:1.5;stroke-linecap:round;stroke-linejoin:round;stroke-miterlimit:10;" x1="162.085" y1="155.827" x2="159.176" y2="159.354"/>
				</g>
				<g>
					
						<line style="fill:none;stroke:#D48983;stroke-width:1.5;stroke-linecap:round;stroke-linejoin:round;stroke-miterlimit:10;" x1="192.933" y1="154.037" x2="191.212" y2="158.327"/>
					
						<line style="fill:none;stroke:#D48983;stroke-width:1.5;stroke-linecap:round;stroke-linejoin:round;stroke-miterlimit:10;" x1="188.675" y1="155.916" x2="186.931" y2="160.052"/>
					
						<line style="fill:none;stroke:#D48983;stroke-width:1.5;stroke-linecap:round;stroke-linejoin:round;stroke-miterlimit:10;" x1="184.732" y1="156.035" x2="183.078" y2="159.624"/>
				</g>
			</g>
		</g>
		
			<path id="Chest_00000096030787426308448010000008552446008055765439_" style="fill:#FFFFFF;stroke:#303030;stroke-width:1.5;stroke-linecap:round;stroke-linejoin:round;stroke-miterlimit:10;" d="
			M183.699,183.499c0,0-3.54,3.577-10.82,5.175c3.945,7.53-11.527,12.357-24.985-0.31c-10.591-2.574-18.476-7.146-18.476-7.146
			s-12.118,23.871-9.297,55.217c0.865,9.614,4.122,22.609,7.961,34.34c4.857,14.84,0,34.543,16.052,35.862
			c33.023-48.31,66.422-53.91,79.089-49.249c-4.581-14.839-5.144-21.214-6.206-32.957c-0.968-10.71-4.692-17.541-10.758-23.235
			C200.063,195.378,190.187,187.642,183.699,183.499z"/>
		<g id="Hair_00000170241446174553748140000000121442721248640138_">
			<path style="fill:#00826F;" d="M201.462,175.069c-0.524,5.252-3.258,10.492-7.827,13.152c-4.098,2.386-14.813,4.255-21.793,0.495
				l-0.378-8.584c5.892-0.073,22.885-3.739,23.146-24.95C201.491,160.753,201.884,170.821,201.462,175.069z"/>
			<path style="fill:none;stroke:#00826F;stroke-width:1.5;stroke-linecap:round;stroke-linejoin:round;stroke-miterlimit:10;" d="
				M195.928,157.349c7.468,4.985,9.658,15.668,7.548,23.347c-1.579,5.748-10.034,15.339-25.525,9.315"/>
		</g>
		<g id="Legs">
			<g id="Leg_2">
				
					<path style="fill:#303030;stroke:#303030;stroke-width:1.5;stroke-linecap:round;stroke-linejoin:round;stroke-miterlimit:10;" d="
					M385.126,307.238c-5.876-8.34-21.471-2.3-34.027,9.371c-8.533,8.555-19.99,23.18-13.09,34.032
					c5.967,9.385,20.32,10.744,33.4-3.778C389.006,327.328,391.003,315.578,385.126,307.238z"/>
				<path id="Leg_00000116218778639315641460000008823090629337241257_" style="fill:#FFCCCC;" d="M454.158,324.485
					c-9.855-3.167-15.435,3.569-25.208,15.299c-9.022,10.829-13.329,18.396-19.632,15.059c-3.897-2.063-11.002-10.875-20.465-29.059
					c-10.704-20.567-26.046-49.689-31.63-60.582c-9.217-17.982-23.703-28.839-49.7-27.477
					c-27.625,1.447-100.245,27.284-100.245,27.284s-17.996,14.03-37.85,45.901c8.793,13.787,25.71,33.32,54.037,30.365
					c28.233-2.944,67.797-28.114,87.419-41.09c3.165,13.3,9.164,23.598,20.76,35.908c14.436,15.324,38.876,36.527,47.928,48.412
					c10.45,13.721,10.878,22.09,18.639,31.226c6.229,7.332,16.252,7.195,21.882,0.81c6.522-7.397,14.539-20.561,21.16-27.827
					c7.443-8.168,18.475-17.433,21.821-35.527C464.928,343.165,464.013,327.653,454.158,324.485z"/>
				<g>
					<path style="fill:#00826F;" d="M336.696,347.972c-5.312-7.611-8.427-11.851-15.104-20.245
						c-6.978-8.772-10.613-15.092-13.445-22.585c0,0-29.593,19.49-46.687,27.769c-17.094,8.279-41.881,16.768-65.172,6.939
						c-23.29-9.829-33.76-35.043-33.76-35.043s25.907-32.351,46.206-42.823c0,0,47.564-15.461,65.648-20.033
						c23.324-5.897,35.844-8.478,49.401-6.485c16.645,2.446,23.675,11.408,33.211,26.518c8.673,13.744,25.401,41.377,25.401,41.377
						C356.113,305.072,337.978,343.698,336.696,347.972z"/>
					
						<path style="fill:#FFFFFF;stroke:#303030;stroke-width:1.5;stroke-linecap:round;stroke-linejoin:round;stroke-miterlimit:10;" d="
						M379.25,298.898c-12.97-8.163-47.222,22.908-47.917,43.041c0,0,3.742,5.038,6.676,8.702
						c4.362-20.531,30.282-47.395,47.117-43.403L379.25,298.898z"/>
					<g>
						<g>
							<path style="fill:#303030;" d="M306.486,285.466c-0.747,6.58-0.283,13.377,0.938,19.876c0.178,0.947,1.624,0.546,1.446-0.399
								c-1.196-6.368-1.616-13.032-0.884-19.477C308.095,284.508,306.594,284.516,306.486,285.466L306.486,285.466z"/>
						</g>
					</g>
				</g>
				
					<path style="fill:#303030;stroke:#303030;stroke-width:1.5;stroke-linecap:round;stroke-linejoin:round;stroke-miterlimit:10;" d="
					M413.317,351.039c-4.937,0.689-6.149-3.045-9.764-8.607c-3.615-5.563-6.437-11.052-8.225-14.083
					c-1.788-3.031-13.212-3.574-25.626,7.328c-12.857,11.291-16.125,25.034-12.704,29.802c3.421,4.768,15.778,15.892,18.957,20.064
					c3.179,4.172,8.145,11.523,11.324,17.086c3.179,5.563,8.556,19.778,19.789,21.968c11.13,2.17,18.043-10.517,23.52-18.386
					c8.343-11.988,14.901-17.688,25.63-30.601c10.728-12.914,13.478-26.797,9.028-41.082c-4.45-14.285-18.018-13.679-24.972-8.657
					c-6.953,5.022-9.164,8.242-15.205,15.982C418.669,350.052,415.701,350.706,413.317,351.039z"/>
				<g>
					<path style="fill:#F55571;" d="M453.357,320.376c-7.554-2.388-14.662-0.839-22.984,8.2
						c-7.508,8.155-13.579,18.658-16.486,19.198c-2.907,0.54-5.512-9.289-8.828-10.616c-3.931-1.573-13.764,1.796-22.317,10.286
						c-7.516,7.461-4.815,10.694-3.785,13.315c1.815,4.618,4.383,9.003,3.134,11.254c-1.249,2.251-5.394-6.385-9.44-1.625
						c-4.046,4.76-6.746,8.863-3.921,12.326c2.824,3.463,6.338,5.617,9.601,12.066c3.34,6.601,7.263,16.065,13.382,21.66
						c5.45,4.983,16.036,11.045,24.67,4.151c8.634-6.894,17-26.411,26.978-35.494c9.978-9.083,21.295-22.395,23.76-34.674
						C469.584,338.148,460.977,324.505,453.357,320.376z"/>
					
						<path style="fill:#303030;stroke:#303030;stroke-width:1.5;stroke-linecap:round;stroke-linejoin:round;stroke-miterlimit:10;" d="
						M463.85,327.739c-5.735-7.623-18.169-3.345-28.558,13.678c-10.179,16.681-11.629,26.123-16.78,35.986
						c-5.151,9.863-14.434,21.091-18.333,28.061c-5.205,9.303-3.431,16.9,4.681,19.707c10.514,3.638,21.772-7.172,30.486-22.076
						c7.589-12.981,14.428-18.068,23.235-27.558C467.389,366.047,476.148,344.086,463.85,327.739z"/>
					
						<path style="fill:#FFFFFF;stroke:#303030;stroke-width:1.5;stroke-linecap:round;stroke-linejoin:round;stroke-miterlimit:10;" d="
						M404.86,425.171c-8.111-2.806-9.885-10.404-4.681-19.707c3.899-6.97,13.181-18.198,18.333-28.061
						c5.151-9.863,6.601-19.305,16.78-35.986c8.741-14.324,19.806-18.776,26.351-15.81c-1.619-1.302-6.355-3.992-7.744-4.219
						c-7.163-1.171-16.931,1.637-25.608,15.855c-10.179,16.681-11.629,26.123-16.78,35.986
						c-5.151,9.863-14.433,21.091-18.333,28.061c-3.389,6.058-3.677,11.307-1.467,15.152
						C392.589,417.968,397.328,423.114,404.86,425.171z"/>
					<g>
						<g>
							<path style="fill:#303030;" d="M396.264,367.921c3.782-6.246,8.816-11.566,14.293-16.35c1.27-1.109,2.562-2.191,3.861-3.266
								c0.744-0.616-0.322-1.672-1.061-1.061c-5.271,4.364-10.36,8.956-14.569,14.382c-1.376,1.774-2.656,3.617-3.819,5.538
								C394.467,367.992,395.764,368.747,396.264,367.921L396.264,367.921z"/>
						</g>
					</g>
				</g>
			</g>
			<g id="Leg_1">
				<g>
					<path style="fill:#FFCCCC;" d="M286.825,216.005c-10.689-4.285-26.444-6.031-57.518,18.682
						c-25.087,24.443-57.714,59.445-70.579,88.713c5.643,11.286,17.712,21.063,27.807,23.447
						c16.755,3.956,45.074-2.021,62.674-25.782C279.564,280.084,286.825,216.005,286.825,216.005z"/>
					<path style="fill:#00826F;" d="M256.843,215.283c-26.992,11.714-47.326,35.995-47.326,35.995s-15.675,2.244-35.48,14.848
						c-19.805,12.603-32.691,34.059-32.691,34.059c6.402,17.311,17.404,38.116,34.609,46.518s42.419,4.478,62.016-10.803
						c19.598-15.281,32.208-43.411,38.81-63.216c6.602-19.805,12.203-53.814,12.203-53.814L256.843,215.283z"/>
					
						<path style="fill:none;stroke:#303030;stroke-width:1.5;stroke-linecap:round;stroke-linejoin:round;stroke-miterlimit:10;" d="
						M208.031,251.551c-4.353,0.888-17.791,4.265-33.994,14.576c-19.805,12.603-32.691,34.059-32.691,34.059"/>
					
						<path style="fill:none;stroke:#303030;stroke-width:1.5;stroke-linecap:round;stroke-linejoin:round;stroke-miterlimit:10;" d="
						M212.653,247.796c-14.383,13.709-30.619,32.999-38.615,45.308"/>
					<g>
						<g>
							<path style="fill:#303030;" d="M188.816,258.375c2.071,2.541,4.067,5.218,5.59,8.13c0.447,0.856,1.742,0.098,1.295-0.757
								c-1.582-3.025-3.674-5.795-5.825-8.434c-0.256-0.314-0.795-0.266-1.061,0C188.505,257.625,188.559,258.059,188.816,258.375
								L188.816,258.375z"/>
						</g>
					</g>
					<g>
						<g>
							<path style="fill:#303030;" d="M196.814,254.978c1.152,1.594,2.255,3.238,3.166,4.984c0.187,0.359,0.689,0.467,1.026,0.269
								c0.364-0.213,0.457-0.666,0.269-1.026c-0.911-1.746-2.014-3.39-3.166-4.984c-0.237-0.328-0.652-0.488-1.026-0.269
								C196.76,254.142,196.576,254.648,196.814,254.978L196.814,254.978z"/>
						</g>
					</g>
					
						<path style="fill:none;stroke:#303030;stroke-width:1.5;stroke-linecap:round;stroke-linejoin:round;stroke-miterlimit:10;" d="
						M151.55,286.341c6.142,14.932,12.249,22.709,18.017,26.375c9.162,5.823,14.633-7.842,28.862-30.491
						c14.223-22.64,32.474-43.283,41.358-43.071"/>
				</g>
				<g>
					
						<path style="fill:#303030;stroke:#303030;stroke-width:1.5;stroke-linecap:round;stroke-linejoin:round;stroke-miterlimit:10;" d="
						M225.116,310.413c-1.084,7.712,7.999,10.805,24.093,10.652c16.094-0.153,32.354-3.69,35.159-12.611
						c2.805-8.922-16.637-16.907-33.105-13.157C234.794,299.047,226.363,304.005,225.116,310.413z"/>
					<path style="fill:#FFCCCC;" d="M254.801,367.695c1.691-13.84,6.801-22.783,16.809-46.03
						c9.328-21.667,13.577-33.811,20.888-54.17c6.379-17.764,9.509-45.182-7.186-52.211c-13.358-5.624-44.012,29.512-44.012,29.512
						c-9.073,18.688-7.804,37.728-10.785,68.603c-2.64,27.34-7.061,35.638-10.875,41.623c-3.814,5.985-13.751,15.215-10.122,26.933
						c1.672,5.398,7.075,10.054,9.551,19.55c3.395,13.025,2.981,21.94,7.506,27.097c8.914,10.158,25.212,12.29,38.597,11.664
						c6.986-0.327,11.48-4.953,9.839-11.316c-1.66-6.436-9.517-14.654-13.154-22.882
						C256.116,393.083,253.524,379.832,254.801,367.695z"/>
					<g>
						<path style="fill:#00826F;" d="M256.843,215.283c23.31-9.536,36.913-1.521,40.967,13.141
							c3.541,12.804,0.374,24.112-4.176,42.198c-4.843,19.253-7.549,27.681-7.549,27.681c-11.341-9.489-41.175-10.615-58.705,1.882
							c0,0,1.991-13.482,5.72-36.7c1.376-10.546,4.556-20.323,8.734-28.799C245.775,226.693,251.807,220.514,256.843,215.283z"/>
						
							<path style="fill:none;stroke:#303030;stroke-width:1.5;stroke-linecap:round;stroke-linejoin:round;stroke-miterlimit:10;" d="
							M297.811,228.424c3.541,12.804,0.374,24.112-4.176,42.198c-4.843,19.253-7.549,27.681-7.549,27.681"/>
						
							<path style="fill:none;stroke:#303030;stroke-width:1.5;stroke-linecap:round;stroke-linejoin:round;stroke-miterlimit:10;" d="
							M238.639,241.952c3.017,2.031,4.258,3.704,2.419,12.257c-1.839,8.553-5.818,38.895-5.818,38.895"/>
						
							<path style="fill:none;stroke:#303030;stroke-width:1.5;stroke-linecap:round;stroke-linejoin:round;stroke-miterlimit:10;" d="
							M227.381,299.718c0,0,3.211-21.401,5.72-36.233c1.945-11.501,4.556-20.323,8.734-28.799"/>
						
							<path style="fill:#FFFFFF;stroke:#303030;stroke-width:1.5;stroke-linecap:round;stroke-linejoin:round;stroke-miterlimit:10;" d="
							M256.978,287.541c-22.42,1.484-29.597,9.926-29.597,9.926l-2.265,12.945c0,0,7.838-9.558,29.193-11.339
							c17.615-1.47,27.873,4.757,30.059,9.38l2.609-11.258C286.028,293.669,277.103,286.21,256.978,287.541z"/>
					</g>
				</g>
				
					<path style="fill:#303030;stroke:#303030;stroke-width:1.5;stroke-linecap:round;stroke-linejoin:round;stroke-miterlimit:10;" d="
					M220.915,349.705c1.806-4.906,2.822-10.149,3.062-13.875c0.24-3.726,1.139-7.212,4.894-9.044
					c3.553-1.733,12.516-4.555,21.309-4.779c8.769-0.223,17.832,1.137,19.912,3.16c2.684,2.609,1.026,5.225-1.763,11.864
					c-2.789,6.64-9.899,23.814-11.163,31.628c-1.264,7.813-1.174,22.805,1.953,30.53c3.128,7.726,10.456,18.418,13.559,23.129
					c3.102,4.711,4.391,10.982,0.472,14.741c-3.919,3.759-14.761,3.299-25.406,2.839c-10.645-0.46-22.406-8.273-24.359-15.397
					c-1.953-7.124-2.451-19.32-4.941-25.118c-2.49-5.798-9.767-13.489-10.801-18.085c-1.034-4.596-0.079-8.33,5.533-17.264
					C218.789,355.102,219.464,353.646,220.915,349.705z"/>
				<g id="Shoe">
					<path style="fill:#F55571;" d="M220.119,348.925c-1.76-1.022-2.876-0.308-3.7,2.113c-0.77,2.263-1.815,5.387-3.258,7.985
						c-1.914,3.446-6.644,9.717-8.518,18.818c2.677,11.242,8.65,15.82,10.522,21.145c1.062,3.021,2.219,5.861,3.097,10.159
						c1.148,5.616,1.758,12.227,2.976,16.072c2.941,9.282,12.313,15.257,26.231,16.863c13.918,1.606,23.019,0.051,26.766-1.714
						c3.747-1.765,6.156-13.81-5.086-26.39c-11.242-12.58-10.469-34.206-9.398-41.059c1.071-6.853,7.419-14.476,3.604-18.897
						s-17.333-7.839-22.354-8.292c-8.296-0.749-10.663,10.916-11.198,14.556c-0.535,3.639-3.247,3.994-4.688,0
						c-0.232-0.645-0.398-1.357-0.516-2.039c-0.311-1.798-1.012-3.499-2.12-4.948C221.723,352.306,220.204,350.252,220.119,348.925z
						"/>
					
						<path style="fill:#FFFFFF;stroke:#303030;stroke-width:1.5;stroke-linecap:round;stroke-linejoin:round;stroke-miterlimit:10;" d="
						M247.469,442.08c-13.919-1.606-22.81-7.101-26.231-16.863c-1.088-3.104-1.585-7.734-2.24-12.019
						c-0.87-5.694-2.154-9.973-3.833-14.212c-2.079-5.248-7.845-9.904-10.522-21.145c-1.595,2.011-2.946,4.123-3.922,6.393
						c-0.657,1.529-0.707,3.267-0.201,4.852c3.037,9.52,7.931,12.95,9.665,17.904c1.874,5.353,1.133,15.638,5.779,26.517
						c2.582,6.046,11.285,14.908,28.676,17.414c11.514,1.658,19.096,0.625,24.104-0.494c2.714-0.607,4.806-2.456,5.745-5.074
						c0.635-1.77,0.837-3.505,0.55-4.987C271.292,442.131,261.388,443.686,247.469,442.08z"/>
					<g>
						
							<path style="fill:none;stroke:#303030;stroke-width:1.5;stroke-linecap:round;stroke-linejoin:round;stroke-miterlimit:10;" d="
							M233.398,412.08c9.686-7.407,29.427-7.44,33.616-2.137"/>
						
							<path style="fill:none;stroke:#303030;stroke-width:1.5;stroke-linecap:round;stroke-linejoin:round;stroke-miterlimit:10;" d="
							M230.886,400.788c8.985-7.407,27.298-7.44,31.184-2.137"/>
						
							<path style="fill:none;stroke:#303030;stroke-width:1.5;stroke-linecap:round;stroke-linejoin:round;stroke-miterlimit:10;" d="
							M228.978,389.303c8.695-6.414,27.58-5.819,31.245-0.361"/>
						
							<path style="fill:none;stroke:#303030;stroke-width:1.5;stroke-linecap:round;stroke-linejoin:round;stroke-miterlimit:10;" d="
							M227.72,379.062c9.607-6.58,28.496-5.107,31.896,0.52"/>
					</g>
				</g>
			</g>
		</g>
		<g id="Earphones">
			<g>
				<g>
					<path style="fill:#303030;" d="M132.853,143.465c0.742-0.038,3.576-0.182,4.317-0.219c5.561-0.283,10.354,5.086,10.705,11.992
						s-3.873,12.733-9.434,13.015c-0.742,0.038-3.576,0.182-4.317,0.219c-5.561,0.283-10.354-5.086-10.705-11.992
						C123.068,149.575,127.292,143.748,132.853,143.465z"/>
				</g>
				<path style="fill:#303030;" d="M140.523,145.032c0.424-10.181,0.999-17.308,8.762-21.473c8.867-4.757,21.91-3.504,27.54-2.604
					c-14.035-5.423-27.386-3.593-34.185,0.326c-5.467,3.151-9.201,9.581-9.753,22.647L140.523,145.032z"/>
				<path style="fill:#F55571;" d="M123.419,156.48c0.351,6.906,5.144,12.274,10.705,11.992c5.561-0.283,9.785-6.11,9.434-13.015
					c-0.351-6.906-5.144-12.274-10.705-11.992C127.292,143.748,123.068,149.575,123.419,156.48z"/>
				<path style="fill:#303030;" d="M127.855,156.255c0.196,3.863,2.878,6.867,5.989,6.709c3.111-0.158,5.474-3.418,5.278-7.282
					c-0.196-3.863-2.878-6.867-5.989-6.709S127.659,152.392,127.855,156.255z"/>
				<path style="fill:#F55571;" d="M134.113,150.894c-2.012,0.422-3.479,2.629-3.346,5.234c0.129,2.543,1.734,4.561,3.713,4.857
					c2.012-0.422,3.479-2.629,3.346-5.234C137.697,153.208,136.092,151.191,134.113,150.894z"/>
			</g>
		</g>
		<g id="Arm_00000119101745698029563520000000503528964369798307_">
			<path style="fill:#F55571;stroke:#F55571;stroke-width:1.5;stroke-miterlimit:10;" d="M134.296,183.499
				c4.357,8.234,1.948,34.421-5.6,47.519l-7.589,9.917c-6.184,8.2-15.87,9.758-24.165,2.994c-8.887-7.248-13.21-19.373-9.389-27.339
				c4.018-8.38,11.677-10.945,15.169-21.818C105.552,185.958,114.709,173.276,134.296,183.499z"/>
			<g>
				<path style="fill:#FFC4B0;" d="M133.083,193.099c1.214-4.057,4.589-7.562,5.931-11.881c1.342-4.319-1.805-14.879-2.527-18.503
					c-0.722-3.624,0.522-10.5,0.644-12.966c0.122-2.466,0.591-6.562-0.765-7.762c-1.506-1.332-2.797-0.665-2.797-0.665
					s0.068-0.732-0.057-1.94c-0.203-1.96-1.114-2.885-2.535-3.245c-1.158-0.293-2.097,0.592-2.749,3.138
					c-0.501-0.503-2.058-0.821-3.151,0.002c-1.093,0.823-1.744,3.343-2.559,6.364c-1.041-1.407-2.667-1.723-3.593,0.013
					c-0.926,1.736-2.547,5.695-3.349,8.328c-0.802,2.633,1.136,9.299,1.659,12.732c0.741,4.867,1.496,8.584,1.151,11.151
					c-0.309,2.299-3.656,7.128-9.438,16.242c-7.027,11.077-14.703,23.295-18.316,30.024c-3.613,6.729-4.435,15.523-3.847,19.796
					c1.946,14.128,15.03,11.786,22.712,6.433c9.23-6.433,12.314-16.704,15.104-26.558
					C127.813,212.456,132.065,196.503,133.083,193.099z"/>
				<g>
					<g>
						<g>
							<path style="fill:#303030;" d="M134.683,140.315c-3.38-0.115-3.682,4.996-4.1,7.331c-0.638,3.559-1.3,7.142-1.494,10.759
								c-0.052,0.965,1.448,0.962,1.5,0c0.174-3.241,0.733-6.355,1.299-9.563c0.268-1.519,0.485-3.071,0.873-4.565
								c0.249-0.96,0.693-2.503,1.923-2.461C135.648,141.848,135.647,140.348,134.683,140.315L134.683,140.315z"/>
						</g>
					</g>
					<g>
						<g>
							<path style="fill:#303030;" d="M129.258,135.68c-1.213,1.126-1.661,2.702-2.044,4.257c-0.308,1.249-0.617,2.497-0.898,3.753
								c-0.81,3.61-1.569,7.297-1.899,10.987c-0.104,1.168-0.101,2.329,0.01,3.497c0.09,0.953,1.591,0.962,1.5,0
								c-0.228-2.417,0.101-4.788,0.497-7.172c0.556-3.346,1.246-6.662,2.062-9.954c0.376-1.517,0.637-3.195,1.835-4.306
								C131.028,136.083,129.965,135.024,129.258,135.68L129.258,135.68z"/>
						</g>
					</g>
					<g>
						<g>
							<path style="fill:#303030;" d="M121.655,144.446c-0.48,2.355-1.067,4.691-1.581,7.04c-0.253,1.154-0.494,2.325-0.575,3.506
								c-0.07,1.022,0.019,2.058,0.121,3.074c0.096,0.951,1.597,0.961,1.5,0c-0.102-1.016-0.191-2.053-0.121-3.074
								c0.077-1.123,0.329-2.231,0.57-3.327c0.501-2.274,1.067-4.538,1.532-6.819C123.294,143.903,121.848,143.499,121.655,144.446
								L121.655,144.446z"/>
						</g>
					</g>
				</g>
			</g>
		</g>
	</g>
</g>
</svg>
